<?xml version="1.0" encoding="UTF-8" standalone="no"?>
<!DOCTYPE svg PUBLIC "-//W3C//DTD SVG 1.1//EN" "http://www.w3.org/Graphics/SVG/1.1/DTD/svg11.dtd">
<svg width="100%" height="100%" viewBox="0 0 512 512" version="1.1" xmlns="http://www.w3.org/2000/svg" xmlns:xlink="http://www.w3.org/1999/xlink" xml:space="preserve" xmlns:serif="http://www.serif.com/" style="fill-rule:evenodd;clip-rule:evenodd;stroke-linejoin:round;stroke-miterlimit:2;">
    <g>
        <g transform="matrix(1.519531,0,0,1.519531,-327.5,62)">
            <circle cx="384" cy="128" r="128" style="fill:rgb(235,235,235);"/>
        </g>
        <path d="M210.781,210.797L214.656,191.938L151.625,150.36C151.281,150.126 150.781,150.172 150.469,150.485C150.172,150.782 150.125,151.282 150.36,151.641L191.938,214.657L210.781,210.797Z" style="fill:rgb(181,157,23);fill-rule:nonzero;"/>
        <path d="M320.063,297.344L301.219,301.219L297.344,320.063L360.375,361.641C360.719,361.891 361.219,361.829 361.531,361.516C361.828,361.219 361.875,360.735 361.625,360.375L320.063,297.344Z" style="fill:rgb(181,157,23);fill-rule:nonzero;"/>
        <path d="M320.063,214.656L361.641,151.64C361.875,151.281 361.829,150.781 361.532,150.484C361.219,150.171 360.719,150.125 360.376,150.359L297.345,191.937L301.22,210.796L320.063,214.656Z" style="fill:rgb(181,157,23);fill-rule:nonzero;"/>
        <path d="M191.938,297.344L150.36,360.375C150.126,360.734 150.172,361.219 150.469,361.516C150.782,361.829 151.282,361.891 151.625,361.641L214.656,320.063L210.781,301.219L191.938,297.344Z" style="fill:rgb(181,157,23);fill-rule:nonzero;"/>
        <path d="M436.531,255.094L287.437,224.563L256.906,75.484C256.812,75.046 256.437,74.75 256,74.75C255.563,74.75 255.187,75.047 255.094,75.484L224.563,224.562L75.469,255.094C75.063,255.188 74.75,255.563 74.75,256C74.75,256.437 75.063,256.813 75.469,256.906L224.563,287.453L255.094,436.516C255.188,436.954 255.563,437.25 256,437.25C256.437,437.25 256.813,436.953 256.906,436.516L287.437,287.453L436.531,256.906C436.937,256.812 437.25,256.437 437.25,256C437.25,255.563 436.938,255.188 436.531,255.094ZM256,278.344C243.656,278.344 233.656,268.328 233.656,256C233.656,243.672 243.656,233.656 256,233.656C268.344,233.656 278.344,243.672 278.344,256C278.344,268.328 268.344,278.344 256,278.344Z" style="fill:rgb(181,157,23);fill-rule:nonzero;"/>
        <path d="M491.844,156.406C472.344,110.437 439.906,71.422 399.078,43.797C378.656,30 356.125,19.047 332.062,11.547C307.999,4.047 282.406,0 256,0C220.781,0 187.047,7.188 156.406,20.156C110.437,39.656 71.422,72.094 43.797,112.922C29.984,133.344 19.031,155.875 11.531,179.938C4.031,204.001 0,229.594 0,256C0,291.234 7.188,324.969 20.156,355.594C39.656,401.563 72.078,440.578 112.922,468.203C133.344,482.016 155.875,492.969 179.938,500.469C204.001,507.969 229.594,512 256,512C291.219,512 324.969,504.812 355.594,491.828C401.563,472.359 440.578,439.906 468.203,399.078C482.016,378.656 492.969,356.125 500.469,332.062C507.969,307.999 512,282.406 512,256C512,220.781 504.813,187.047 491.844,156.406ZM434.313,331.219C419.625,365.891 395,395.547 364.079,416.438C348.626,426.907 331.595,435.157 313.47,440.813C295.329,446.469 276.064,449.532 256.001,449.532C229.267,449.532 203.923,444.094 180.782,434.313C146.094,419.625 116.469,395 95.563,364.079C85.094,348.626 76.844,331.61 71.188,313.47C65.532,295.33 62.484,276.063 62.469,256C62.485,229.266 67.907,203.906 77.688,180.781C92.376,146.109 117.001,116.468 147.922,95.562C163.375,85.109 180.391,76.843 198.531,71.187C216.671,65.531 235.937,62.484 256,62.484C282.75,62.484 308.094,67.906 331.219,77.703C365.907,92.375 395.532,117 416.438,147.922C426.907,163.375 435.157,180.406 440.813,198.531C446.469,216.687 449.532,235.937 449.532,256C449.516,282.734 444.094,308.094 434.313,331.219Z" style="fill:rgb(181,157,23);fill-rule:nonzero;"/>
    </g>
</svg>
